User Type,Username,Date,Text
[T],Tyr3ll,2012-09-15T01:12Z,"General
ID                             : 1 (0x1)
Complete name                  : C:The_Constant_Gardener.(2005).(F.Meirelles)-Remastered-HD.800p[)(]AC3-5.1-(US-FR)-PreRC1.ts

Format                         : MPEG-TS
File size                      : 10.0 GiB
Duration                       : 2h 8mn
Overall bit rate mode          : Variable
Overall bit rate               : 11.1 Mbps

Video
ID                             : 256 (0x100)
Menu ID                        : 1 (0x1)
Format                         : MPEG Video
Format version                 : Version 2
Format profile                 : Main@High 1440
Format settings, BVOP          : No
Format settings, Matrix        : Custom
Format settings, GOP           : M=1, N=15
Codec ID                       : 2
Duration                       : 2h 8mn
Bit rate mode                  : Variable
Bit rate                       : 9 556 Kbps
Maximum bit rate               : 15.0 Mbps
Width                          : 1 440 pixels
Height                         : 800 pixels
Display aspect ratio           : 16:9
Frame rate                     : 23.976 fps
Color space                    : YUV
Chroma subsampling             : 4:2:0
Bit depth                      : 8 bits
Scan type                      : Progressive
Compression mode               : Lossy
Bits/(Pixel*Frame)             : 0.346
Stream size                    : 8.60 GiB (86%)

Audio #1
ID                             : 257 (0x101)
Menu ID                        : 1 (0x1)
Format                         : AC-3
Format/Info                    : Audio Coding 3
Mode extension                 : CM (complete main)
Format settings, Endianness    : Big
Codec ID                       : 129
Duration                       : 2h 8mn
Bit rate mode                  : Constant
Bit rate                       : 512 Kbps
Channel(s)                     : 6 channels
Channel positions              : Front: L C R, Side: L R, LFE
Sampling rate                  : 48.0 KHz
Bit depth                      : 16 bits
Compression mode               : Lossy
Delay relative to video        : -5ms
Stream size                    : 472 MiB (5%)
Language                       : French

Audio #2
ID                             : 258 (0x102)
Menu ID                        : 1 (0x1)
Format                         : AC-3
Format/Info                    : Audio Coding 3
Mode extension                 : CM (complete main)
Format settings, Endianness    : Big
Codec ID                       : 129
Duration                       : 2h 8mn
Bit rate mode                  : Constant
Bit rate                       : 512 Kbps
Channel(s)                     : 6 channels
Channel positions              : Front: L C R, Side: L R, LFE
Sampling rate                  : 48.0 KHz
Bit depth                      : 16 bits
Compression mode               : Lossy
Delay relative to video        : -5ms
Stream size                    : 472 MiB (5%)
Language                       : English
"
[T],Tyr3ll,2012-09-18T17:18Z,"And again,for this new torrent,here it is the same suspicious activity by www.scaneye.pl

Target--->
Information :
IP:

153.19.161.32
http ://www.scaneye.pl

Decimal:
2568200480

Hostname:
hms.apsl.edu.pl

ISP:
TASK Academic Computer Centre

Organization:
TASK Academic Computer Network

Type:
Broadband

Assignment:
Static IP

Geolocation Information :

Country:
Poland 

State/Region:
Pomorskie

City:
Slupsk

Latitude:
54.4678

Longitude:
17.0275

We saw also an other organism like this one on few of our old torrent but with a different name.
We ask you all to add this ip as blacklisted in your torrent client,please !
It's very important and unfortunately we seriously think to switch in private torrent...
We are looking for 7 strong internet users based on T1/T2/T3 with a minimum of 1 meg real up so.
If you are interested,so please,contact us right here :
tyrell.tpb@gmail.com

Thx by advance and take care my friends 'cause we are seriously tracked anyway :(
kind regards"
[T],Tyr3ll,2012-09-18T19:40Z,"We strongely recommend you all to use :

PeerBlock
1.1

as downloadable right here :

http://peerblock.googlecode.com/files/PeerBlock-Setup_v1.1_r518.exe

you will see the difference after ;)
best regards"
